<svg xmlns="http://www.w3.org/2000/svg" viewBox="0 0 128 128">
  <rect width="128" height="128" rx="30" fill="#142319"/>
  <circle cx="64" cy="64" r="43" fill="none" stroke="#3a5941" stroke-width="2"/>
  <path d="M53 28C29 34 22 61 34 83c7 13 19 19 32 19" fill="none" stroke="#b9ff58" stroke-width="8" stroke-linecap="round"/>
  <path d="M50 39c-11 8-13 26-5 39" fill="none" stroke="#dcff9b" stroke-width="2.5" stroke-linecap="round" opacity=".92"/>
  <g fill="none" stroke="#caff6a" stroke-width="2.5" stroke-linecap="round" stroke-linejoin="round" opacity=".82">
    <path d="M58 48 73 39 88 49 79 67 96 78"/>
    <path d="M79 67 67 84" opacity=".62"/>
  </g>
  <g fill="#f7ffe2">
    <circle cx="58" cy="48" r="3.5"/><circle cx="73" cy="39" r="3.5"/><circle cx="88" cy="49" r="3.5"/><circle cx="79" cy="67" r="3.5"/><circle cx="96" cy="78" r="3.5"/><circle cx="67" cy="84" r="2.7"/>
  </g>
  <circle cx="48" cy="57" r="3.2" fill="#142319"/>
</svg>
